<?xml version="1.0" encoding="utf-8"?>
<!-- Generator: Adobe Illustrator 16.0.0, SVG Export Plug-In . SVG Version: 6.00 Build 0)  -->
<!DOCTYPE svg PUBLIC "-//W3C//DTD SVG 1.1//EN" "http://www.w3.org/Graphics/SVG/1.1/DTD/svg11.dtd">
<svg version="1.1" id="Layer_1" xmlns="http://www.w3.org/2000/svg" xmlns:xlink="http://www.w3.org/1999/xlink" x="0px" y="0px"
	 width="854px" height="348px" viewBox="0 0 854 348" enable-background="new 0 0 854 348" xml:space="preserve">
<g>
	<g>
		<path fill-rule="evenodd" clip-rule="evenodd" fill="none" d="M1,1c284.964,0,569.928,0,854.892,0c0,116.318,0,232.637,0,348.956
			c-284.964,0-569.927,0-854.891,0C1,233.638,1,117.319,1,1z M392.194,167.035c-0.026,0.651-0.053,1.303-0.08,1.955
			c-1.404,7.844-3.179,15.643-4.123,23.54c-1.32,11.045-2.022,22.163-2.988,33.25c-0.676,7.776-1.496,15.544-1.972,23.333
			c-0.29,4.729,0.269,8.77,4.083,12.962c4.145,4.556,8.767,6.777,14.169,8.45c2.196,0.68,3.777,0.238,3.583-2.38
			c-0.251-3.368,1.649-3.397,4.078-3.024c4.76,0.731,9.541,1.334,14.291,2.119c2.43,0.402,5.049,0.719,5.889,3.729
			c0.505,0.398,1.012,0.797,1.518,1.195c2.491,4.273,7.163,5.049,11.177,6.717c5.122,2.13,5.628,1.616,5.715-4.019
			c0.005-0.302,0.262-0.6,0.4-0.9c6.065-4.244,11.09-9.545,11.502-17.179c0.427-7.903-0.386-15.874-0.657-23.815
			c-0.225-1.3-0.359-2.624-0.69-3.897c-2.188-8.424-3.269-16.993-3.113-25.682c0.108-6.143,0.572-12.277,0.877-18.415
			c0.136-0.258,0.201-0.532,0.196-0.823c1.548-5.902,3.139-11.795,4.608-17.716c0.314-1.267,0.329-2.651,0.249-3.967
			c-0.51-8.453-0.735-16.942-1.734-25.338c-1.04-8.733-2.478-17.293-0.459-26.152c1.129-4.952,1.169-10.23,1.12-15.356
			c-0.082-8.532-3.924-13.595-11.973-16.443c-11.722-4.148-22.239-2.664-30.927,6.9c-1.063,0.843-2.576,1.479-3.083,2.579
			c-0.735,1.593-0.744,3.522-1.063,5.308c-2.396,1.639-4.824,3.234-7.169,4.943c-0.712,0.519-1.193,1.353-1.78,2.042
			c-1.885,3.064-0.994,5.4,1.891,7.214c1.263,6.999,7.649,6.289,12.653,8.129c-2.815,1.907-5.229,3.935-7.97,5.303
			c-3.612,1.802-6.19,4.44-8.033,7.902c-2.266,4.258-4.662,8.465-6.608,12.869c-1.324,2.996-1.974,6.291-2.925,9.452
			C392.628,156.891,392.411,161.963,392.194,167.035z M277.08,65.094c10.938-2.055,21.876-4.112,32.814-6.165
			c25.63-4.81,51.261-9.615,76.891-14.426c25.793-4.841,51.583-9.702,77.379-14.527c21.879-4.092,43.767-8.134,65.639-12.255
			c1.102-0.208,2.102-0.949,3.148-1.442c-0.111-0.359-0.224-0.718-0.335-1.077c-1.233,0.113-2.484,0.132-3.696,0.355
			c-9.801,1.805-19.597,3.643-29.391,5.482c-25.793,4.842-51.584,9.7-77.378,14.536c-25.795,4.835-51.595,9.642-77.39,14.476
			c-22.53,4.223-45.056,8.468-67.583,12.703c-0.301-2.301-0.275-4.707-0.973-6.88c-1.289-4.008-4.492-4.873-7.806-2.361
			c-0.787,0.596-1.46,1.363-2.109,2.118c-18.671,21.736-37.305,43.504-56.012,65.21c-5.48,6.357-8.19,13.811-8.223,22
			c-0.154,38.491-0.084,76.983-0.036,115.476c0.002,1.789,0.272,3.7,0.938,5.344c1.385,3.418,4.362,4.263,7.237,1.979
			c1.928-1.533,3.32-3.724,5.145-5.409c1.772-1.637,3.792-3.006,5.704-4.493c2.587,0.607,5.174,1.213,7.761,1.823
			c32.173,7.587,64.344,15.179,96.523,22.741c1.088,0.256,2.249,0.205,3.376,0.297c0.079-0.434,0.158-0.868,0.237-1.302
			c-1.302-0.443-2.578-0.995-3.909-1.314c-17.928-4.3-35.856-8.605-53.802-12.831c-16.33-3.847-32.681-7.598-49.022-11.391
			c1.731-2.546,3.245-5.279,5.23-7.61c13.498-15.841,27.026-31.657,40.691-47.354c6.118-7.027,8.775-15.178,8.815-24.295
			c0.068-15.32,0.005-30.641,0.023-45.962C276.993,107.39,277.042,86.242,277.08,65.094z M558.907,209.973
			c0.368-0.952,0.736-1.904,1.105-2.856c1.377-3.159,2.776-6.311,4.128-9.482c1.358-3.187,3.189-6.282,3.908-9.612
			c2.631-12.208,3.086-24.306-1.807-36.286c-6.987-17.107-11.322-34.78-9.472-53.498c0.033-0.33,0.088-0.697-0.019-0.994
			c-1.098-3.083-1.676-6.531-3.463-9.152c-3.47-5.089-8.443-8.643-14.659-9.6c-5.4-0.832-10.975-1.766-16.345-1.268
			c-6.444,0.598-13.388,1.217-17.21,8.133c-0.71,1.283-2.515,2.224-4.015,2.752c-3.429,1.208-7.015,1.966-10.476,3.092
			c-2.295,0.747-4.485,1.814-6.723,2.738c-2.828,0.126-2.858,2.188-2.921,4.226c-0.068,2.251,0.064,4.382,2.938,4.852
			c4.299,4.133,8.731,8.101,14.624,9.821c4.146,1.211,8.406,2.053,12.512,3.381c4.233,1.369,5.641,3.917,4.183,8.097
			c-0.898,2.578-2.434,5.131-4.287,7.136c-3.8,4.11-6.412,8.799-8.683,13.857c-3.808,8.485-5.57,17.383-6.123,26.564
			c-0.417,6.936-2.215,13.916-0.115,20.822c1.771,5.826,2.089,11.748,1.988,17.757c-0.073,4.324-0.068,8.651-0.005,12.976
			c0.092,6.308,0.22,6.554-5.688,8.754c-8.3,3.091-11.855,9.296-12.192,17.633c-0.201,4.97,0.087,9.97,0.349,14.947
			c0.19,3.632,0.567,7.267,1.101,10.863c0.448,3.019,2.15,4.385,5.502,4.317c11.308-0.229,22.621-0.146,33.934-0.184l0.471,0.119
			l0.481-0.056c1.672-0.007,3.344-0.015,5.016-0.021c0.329-0.02,0.658-0.039,0.988-0.06c7.653,0.041,15.308,0.173,22.959,0.047
			c1.508-0.024,3.339-0.662,4.441-1.659c6.494-5.876,8.182-20.413,1.55-26.348c-4.84-4.331-4.816-9.24-3.451-14.989
			C555.54,227.921,557.109,218.92,558.907,209.973z M415.328,290.548c-0.384-0.905-0.558-1.962-1.172-2.581
			c-0.597-0.601-1.688-1.075-2.479-0.972c-0.434,0.057-1.009,1.432-0.988,2.198c0.294,10.973,0.68,21.944,1.043,32.916
			c0.043,1.33-0.079,2.698,0.211,3.972c0.13,0.568,1.096,1.316,1.676,1.311c0.615-0.007,1.574-0.702,1.755-1.29
			c0.332-1.078,0.254-2.299,0.258-3.46c0.02-5.664,0.004-11.329,0.012-16.994c0.005-2.998-0.133-6.01,0.098-8.991
			c0.252-3.261,4.125-6.611,7.164-6.52c2.677,0.08,3.887,1.939,4.106,6.342c0.042,0.831,0.035,1.665,0.036,2.498
			c0.002,7.83-0.002,15.661,0.007,23.492c0.001,1.164-0.189,2.423,0.194,3.459c0.255,0.691,1.32,1.316,2.12,1.474
			c0.396,0.078,1.32-0.894,1.464-1.516c0.257-1.11,0.117-2.316,0.118-3.482c0.006-8.33-0.047-16.661,0.029-24.99
			c0.035-3.807,3.28-7.241,6.706-7.384c3.072-0.127,4.492,1.995,4.563,6.833c0.013,0.833,0.003,1.666,0.003,2.499
			c0.005,8.33,0.001,16.661,0.021,24.991c0.003,1.535,0.054,3.39,2.187,3.007c0.719-0.129,1.609-1.921,1.621-2.963
			c0.119-9.995,0.204-19.994,0.015-29.988c-0.118-6.203-5.614-9.39-11.267-6.741c-1.59,0.745-2.994,1.886-4.449,2.821
			C425.541,285.477,422.572,285.487,415.328,290.548z M819.287,333.676c0.022,0.51,0.045,1.02,0.068,1.529
			c4.807,4.604,10.392,6.396,16.809,3.797c6.154-2.494,8.512-7.653,8.637-13.958c0.249-12.599,0.396-25.2,0.589-38.014
			c-3.03-1.597-2.966,1.943-4.057,3.448c-1.885-0.975-3.453-1.938-5.133-2.63c-6.363-2.621-13.281-0.667-16.565,5.172
			c-4.352,7.737-4.774,15.903-0.708,23.915c3.285,6.469,9.727,8.664,16.561,6.02c1.681-0.65,3.276-1.521,5.772-2.696
			c-0.404,3.501-0.334,6.505-1.148,9.244c-1.935,6.511-7.614,8.972-13.782,6.266c-1.203-0.527-2.184-1.635-3.408-2.019
			C821.812,333.401,820.506,333.676,819.287,333.676z M348.833,324.001c0.157,0.421,0.239,1.173,0.65,1.626
			c0.776,0.855,1.743,1.539,2.631,2.295c0.259-1.121,0.788-2.257,0.729-3.362c-0.236-4.467-0.897-8.921-0.954-13.386
			c-0.145-11.301-0.042-22.604-0.057-33.907c-0.002-1.325,0.054-2.694-0.266-3.954c-0.139-0.55-1.167-1.22-1.774-1.205
			c-0.578,0.015-1.471,0.76-1.63,1.346c-0.297,1.092-0.198,2.301-0.203,3.462c-0.016,3.964-0.006,7.927-0.006,12.336
			c-1.408-0.53-2.29-0.876-3.182-1.195c-8.557-3.066-16.271-0.082-19.781,8.254c-3.377,8.023-3.178,16.271,0.77,24.117
			c2.912,5.789,8.123,8.614,14.389,7.513C343.065,327.426,345.727,325.462,348.833,324.001z M507.849,296.146
			c-0.415-2.711-0.764-4.648-0.994-6.599c-0.183-1.556-0.877-2.745-2.485-2.234c-0.606,0.192-1.116,1.759-1.086,2.678
			c0.082,2.484,0.669,4.954,0.715,7.436c0.158,8.492,0.117,16.988,0.283,25.481c0.034,1.75-0.977,4.72,2.229,4.473
			c2.592-0.2,1.518-2.884,1.61-4.52c0.348-6.143,0.267-12.322,0.887-18.433c0.518-5.101,2.659-9.67,7.225-12.559
			c5.966-3.774,10.495-1.455,10.942,5.52c0.096,1.493,0.056,2.996,0.058,4.496c0.01,7.496,0.006,14.993,0.023,22.49
			c0.004,1.547,0.089,3.381,2.206,2.99c0.72-0.133,1.589-1.925,1.612-2.976c0.146-6.828,0.105-13.659,0.07-20.49
			c-0.016-2.995,0.088-6.022-0.309-8.977c-0.739-5.514-4.327-8.74-9.51-7.95c-2.953,0.45-5.852,2.112-8.449,3.744
			C511.126,291.815,509.942,293.817,507.849,296.146z M776.303,296.637c-0.293-2.882-0.271-4.918-0.785-6.807
			c-0.275-1.01-1.478-1.767-2.262-2.638c-0.416,1.079-1.218,2.171-1.182,3.233c0.194,5.644,0.725,11.276,0.895,16.919
			c0.166,5.489,0.011,10.986,0.058,16.479c0.014,1.569-0.471,3.692,2.13,3.638c2.381-0.05,1.692-2.075,1.719-3.411
			c0.084-4.325-0.235-8.677,0.113-12.977c0.32-3.942,0.907-7.955,2.102-11.707c1.354-4.25,4.247-7.514,8.79-8.856
			c3.838-1.133,6.648,0.301,7.638,4.156c0.446,1.741,0.453,3.622,0.464,5.441c0.048,7.99,0.008,15.981,0.039,23.972
			c0.006,1.434-0.342,3.258,1.892,3.389c2.418,0.143,1.954-1.781,1.97-3.174c0.053-4.659,0.032-9.321,0.021-13.982
			c-0.013-4.661,0.208-9.34-0.132-13.978c-0.533-7.285-5.704-11.078-12.328-9.036c-2.296,0.707-4.444,2.23-6.345,3.77
			C779.476,292.383,778.307,294.257,776.303,296.637z M636.412,307.323c0.936,4.234,1.348,8.271,2.748,11.932
			c2.121,5.543,6.285,8.764,12.563,8.949c6.418,0.19,11.044-2.594,13.521-8.311c3.53-8.149,3.57-16.568-0.002-24.725
			c-2.408-5.499-6.898-8.393-13.043-8.356c-6.174,0.036-10.604,3.065-12.817,8.63C637.873,299.23,637.353,303.413,636.412,307.323z
			 M15.364,296.689c-0.498-2.794-0.9-4.875-1.229-6.967c-0.219-1.395-0.491-2.915-2.296-2.388c-0.553,0.162-0.992,1.771-0.965,2.7
			c0.315,10.809,0.731,21.613,1.118,32.418c0.042,1.164-0.116,2.375,0.165,3.476c0.153,0.601,1.021,1.393,1.59,1.413
			c0.621,0.022,1.639-0.626,1.829-1.199c0.354-1.066,0.291-2.29,0.3-3.45c0.042-5.162-0.15-10.335,0.118-15.485
			c0.304-5.827,2.078-11.204,6.958-14.895c5.936-4.488,11.094-2.182,11.864,5.18c0.155,1.486,0.164,2.993,0.167,4.49
			c0.017,6.829,0.004,13.657,0.013,20.486c0.002,1.164-0.12,2.375,0.163,3.475c0.154,0.598,1.031,1.382,1.6,1.398
			c0.622,0.017,1.631-0.637,1.82-1.213c0.352-1.068,0.29-2.292,0.295-3.451c0.023-5.329,0.097-10.66-0.017-15.988
			c-0.085-3.98-0.043-8.026-0.745-11.919c-1.246-6.905-6.515-9.729-12.994-6.984c-2.509,1.063-4.666,3.067-6.793,4.868
			C17.246,293.565,16.589,294.976,15.364,296.689z M457.309,307.081c0.515,5.058,1.171,9.807,3.648,14.124
			c2.826,4.924,7.072,7.175,12.817,7.01c5.594-0.161,9.649-2.684,11.946-7.572c3.953-8.413,4.015-17.101,0.331-25.607
			c-2.316-5.349-6.732-8.122-12.626-8.22c-6.147-0.103-10.701,2.799-13.014,8.335C458.846,298.904,458.308,303.09,457.309,307.081z
			 M304.285,318.638c0.394,2.703,0.488,4.655,1.023,6.479c0.265,0.899,1.344,1.561,2.055,2.329c0.498-0.868,1.443-1.746,1.425-2.604
			c-0.234-10.954-0.601-21.905-0.95-32.856c-0.031-0.99,0.058-2.083-0.339-2.928c-0.255-0.543-1.283-0.935-1.99-0.979
			c-0.434-0.026-1.211,0.668-1.317,1.151c-0.245,1.118-0.217,2.306-0.228,3.467c-0.039,4.157,0.113,8.322-0.107,12.469
			c-0.304,5.714-1.392,11.27-5.354,15.74c-2.537,2.863-5.672,5.094-9.631,3.639c-3.726-1.369-3.871-5.034-4.001-8.422
			c-0.044-1.162-0.017-2.327-0.017-3.491c-0.001-6.319,0.002-12.638-0.003-18.957c-0.001-1.163,0.225-2.417-0.136-3.463
			c-0.299-0.863-1.309-1.481-2.004-2.209c-0.565,0.67-1.329,1.26-1.637,2.032c-0.289,0.722-0.11,1.638-0.11,2.469
			c-0.003,7.982-0.011,15.964,0.01,23.946c0.003,1.159,0.019,2.344,0.244,3.475c1.655,8.328,7.972,9.883,14.25,6.971
			c2.17-1.008,3.89-3.033,5.726-4.692C302.124,321.361,302.858,320.303,304.285,318.638z M265.465,307.134
			c-1.284-4.357-2.13-8.962-3.995-13.106c-2.229-4.954-6.711-7.123-12.156-7.18c-5.516-0.057-9.819,2.37-12.203,7.174
			c-4.293,8.652-4.44,17.685-0.367,26.442c2.318,4.983,6.478,7.714,12.342,7.708c5.97-0.006,10.491-2.431,12.771-7.775
			C263.578,316.363,264.224,311.871,265.465,307.134z M131.787,326.977c-0.894-1.43-1.666-2.814-2.578-4.101
			c-2.984-4.204-6.032-8.362-9.028-12.557c-3.139-4.396-3.111-4.397-0.115-8.944c2.792-4.236,5.551-8.495,8.511-13.031
			c-4.048-0.202-4.083-0.225-5.781,2.35c-2.51,3.808-4.963,7.651-7.873,12.146c-3.102-4.726-5.684-8.564-8.161-12.472
			c-1.282-2.021-2.675-3.348-5.465-1.818c0.802,1.345,1.508,2.636,2.315,3.861c2.469,3.75,4.896,7.53,7.502,11.184
			c1.252,1.755,1.469,3.186-0.018,4.873c-1.094,1.243-1.996,2.658-2.959,4.014c-3.34,4.697-6.67,9.402-10.112,14.259
			c4.2,0.947,4.292,1.011,6.156-1.687c2.836-4.103,5.502-8.323,8.306-12.448c0.687-1.01,1.626-1.848,2.764-3.113
			c3.646,5.438,6.995,10.381,10.282,15.362C126.95,327.003,128.593,328.349,131.787,326.977z M600.696,306.166
			c0.021,0,0.042,0,0.063,0c0,3.823-0.008,7.645,0.008,11.468c0.003,0.662,0.082,1.328,0.173,1.986
			c0.534,3.868,2.06,7.07,6.13,8.251c5.734,1.662,12.57-1.446,15.101-6.885c0.296-0.635,0.038-2.191-0.342-2.338
			c-0.74-0.285-2.028-0.187-2.589,0.313c-1.218,1.084-1.99,2.658-3.18,3.784c-2.206,2.09-4.922,2.896-7.822,1.79
			c-2.909-1.109-3.581-3.717-3.59-6.529c-0.026-7.812,0.068-15.625-0.069-23.435c-0.051-2.874,1.106-3.864,3.823-3.623
			c1.484,0.132,3.032,0.242,4.476-0.033c1.997-0.381,5.706,1.434,5.605-1.648c-0.097-2.943-3.812-1.043-5.877-1.473
			c-1.274-0.266-2.65-0.016-3.979-0.06c-3.783-0.127-3.873-0.205-3.997-3.961c-0.076-2.324,0.069-4.667-0.185-6.968
			c-0.071-0.644-1.209-1.623-1.854-1.619c-0.61,0.003-1.573,1.006-1.745,1.722c-0.303,1.262-0.133,2.64-0.139,3.97
			c-0.024,6.263-0.022,6.263-6.104,6.882c-0.33,0.034-0.758-0.075-0.976,0.094c-0.576,0.447-1.063,1.012-1.585,1.529
			c0.517,0.507,0.972,1.342,1.563,1.453c1.287,0.243,2.653,0.222,3.972,0.117c2.437-0.192,3.2,0.965,3.145,3.246
			C600.626,298.187,600.696,302.178,600.696,306.166z M172.43,319.342c-1.251,1.073-2.435,2.246-3.772,3.206
			c-5.937,4.261-13.19,2.917-16.651-3.536c-4.024-7.503-4.077-15.431-0.093-22.963c3.716-7.025,11.998-7.932,17.6-2.309
			c0.702,0.704,1.188,1.748,2.013,2.169c0.677,0.346,1.848,0.25,2.531-0.132c0.436-0.244,0.693-1.487,0.47-2.067
			c-0.34-0.887-1.093-1.66-1.794-2.357c-7.565-7.528-20.209-5.579-24.784,4.104c-3.734,7.904-3.667,16.137-0.135,24.166
			c4.485,10.191,18.894,11.19,25.703,3.779C175.47,321.276,174.583,320.319,172.43,319.342z M690.762,296.632
			c-0.423-3.014-0.545-5.136-1.083-7.145c-0.237-0.884-1.322-1.54-2.021-2.299c-0.565,0.801-1.329,1.533-1.632,2.423
			c-0.247,0.723,0.068,1.634,0.117,2.462c0.293,4.967,0.713,9.929,0.837,14.898c0.149,5.979,0.05,11.964,0.05,17.945
			c0,1.513,0.484,2.862,2.196,2.477c0.707-0.159,1.578-1.557,1.61-2.419c0.164-4.48-0.297-9.012,0.192-13.444
			c0.484-4.39,1.486-8.804,2.922-12.98c1.202-3.496,3.903-6.154,7.402-7.717c3.268-1.458,5.482-0.519,6.612,2.831
			c0.422,1.248,0.354,2.689,0.903,3.856c0.308,0.65,1.402,1.194,2.185,1.257c0.437,0.035,1.404-1.041,1.373-1.57
			c-0.197-3.363-0.783-6.716-3.675-8.908c-2.78-2.108-6.041-2.062-8.956-0.537c-2.139,1.118-3.935,2.957-5.734,4.636
			C693.022,293.365,692.279,294.65,690.762,296.632z M206.864,299.757c0-7.992,0.068-15.984-0.07-23.974
			c-0.021-1.27-0.886-3.563-1.506-3.614c-4.125-0.338-8.291-0.232-12.441-0.147c-0.433,0.009-1.283,1.001-1.188,1.236
			c0.255,0.636,0.86,1.494,1.424,1.573c1.636,0.229,3.318,0.123,4.982,0.145c4.846,0.062,4.884,0.061,4.891,5.01
			c0.021,13.984,0.005,27.97,0.012,41.954c0.001,1.331-0.107,2.695,0.157,3.978c0.123,0.594,1.002,1.405,1.573,1.434
			c0.622,0.031,1.656-0.604,1.849-1.173c0.359-1.063,0.309-2.288,0.312-3.446C206.878,315.073,206.868,307.415,206.864,299.757z
			 M744.801,308.01c0-5.645,0.082-11.292-0.072-16.934c-0.029-1.078-0.933-3.013-1.531-3.052c-4.127-0.272-8.282-0.2-12.422-0.07
			c-0.461,0.015-1.065,1.046-1.245,1.703c-0.074,0.274,0.759,1.118,1.229,1.162c1.812,0.17,3.645,0.131,5.469,0.153
			c4.611,0.057,4.646,0.053,4.659,4.599c0.026,9.63-0.038,19.261,0.085,28.89c0.013,1.023,0.877,2.768,1.6,2.912
			c2.102,0.421,2.228-1.349,2.228-2.925C744.799,318.969,744.8,313.489,744.801,308.01z M565.824,308.075
			c0-5.646-0.049-11.292,0.024-16.938c0.028-2.186-0.56-3.475-3.043-3.401c-3.482,0.103-6.977-0.042-10.453,0.142
			c-0.661,0.035-1.267,1.104-1.897,1.695c0.584,0.452,1.126,1.209,1.762,1.298c1.467,0.206,2.979,0.093,4.474,0.102
			c5.194,0.029,5.215,0.028,5.223,5.035c0.017,9.465-0.041,18.93,0.079,28.394c0.013,1.044,0.82,2.812,1.544,2.975
			c2.064,0.463,2.29-1.248,2.288-2.861C565.815,319.035,565.821,313.555,565.824,308.075z M72.99,308.22
			c0-5.639,0.019-11.277-0.013-16.917c-0.008-1.454,0.228-3.298-1.939-3.365c-3.807-0.117-7.623-0.07-11.428,0.074
			c-0.508,0.02-0.979,1.015-1.468,1.558c0.592,0.448,1.153,1.223,1.782,1.283c1.974,0.189,3.978,0.198,5.962,0.111
			c2.349-0.104,3.338,0.924,3.208,3.236c-0.074,1.322,0,2.653,0.001,3.979c0.009,8.791,0.011,17.581,0.03,26.371
			c0.003,1.377,0.125,2.794,1.957,2.872c2.009,0.086,1.888-1.472,1.894-2.782C73.004,319.167,72.989,313.693,72.99,308.22z
			 M383.458,328.599c2.747,0.089,5.196-2.069,5.408-4.766c0.227-2.868-2.175-5.617-4.997-5.72c-2.814-0.104-5.458,2.484-5.445,5.326
			C378.437,326.163,380.728,328.512,383.458,328.599z M71.217,280.078c2.355-0.095,3.751-1.497,3.735-3.751
			c-0.017-2.288-1.932-4.159-4.146-4.047c-2.05,0.104-3.724,1.856-3.75,3.925C67.026,278.624,68.698,280.181,71.217,280.078z
			 M746.754,276.035c-0.094-2.191-2.177-4.063-4.32-3.881c-2.17,0.185-3.877,2.268-3.641,4.513c0.246,2.372,1.617,3.518,3.987,3.466
			C745.215,280.081,746.854,278.382,746.754,276.035z M563.845,280.131c2.289-0.111,4.072-2.052,3.87-4.21
			c-0.192-2.041-2.507-4.058-4.497-3.696c-2.18,0.395-3.505,1.699-3.466,4.088C559.793,278.839,561.294,280.255,563.845,280.131z"/>
		<path fill-rule="evenodd" clip-rule="evenodd" fill="#616161" d="M483.862,93.939c2.237-0.924,4.428-1.992,6.723-2.738
			c3.461-1.126,7.047-1.884,10.476-3.092c1.5-0.528,3.305-1.469,4.015-2.752c3.822-6.916,10.766-7.535,17.21-8.133
			c5.37-0.499,10.944,0.436,16.345,1.268c6.216,0.957,11.189,4.511,14.659,9.6c1.787,2.621,2.365,6.068,3.463,9.152
			c0.106,0.297,0.052,0.665,0.019,0.994c-1.851,18.718,2.484,36.391,9.472,53.498c4.893,11.979,4.438,24.078,1.807,36.286
			c-0.719,3.33-2.55,6.426-3.908,9.612c-1.352,3.172-2.751,6.323-4.129,9.482c-0.809-2.306-1.537-0.979-2.159,0.085
			c-2.769,4.739-5.636,9.428-8.201,14.274c-1.537,2.904-3.125,5.967-3.718,9.139c-0.814,4.366-0.674,8.905-1.012,13.364
			c-0.3,3.95-0.826,7.831-4.726,10.541c-2.669-3.609-3.824-7.212-2.813-11.395c0.86-3.558,0.981-7.086,0.758-10.806
			c-0.375-6.236-1.313-12.684,1.522-18.702c1.769-3.752,3.601-7.479,5.515-11.158c2.228-4.278,4.586-8.486,6.872-12.734
			c3.268-6.07,3.091-12.43,1.452-18.867c-0.132-0.517-0.981-0.851-2.171-1.815c0.23,1.708,0.37,2.489,0.438,3.277
			c0.616,7.218,0.411,14.17-3.725,20.666c-3.295,5.175-6.075,10.716-8.691,16.278c-3.065,6.52-4.878,13.293-3.629,20.729
			c0.596,3.549,0.573,7.41-0.154,10.926c-1.352,6.535-0.385,12.148,5.304,17.467c-1.724,1.401-3.579,2.416-4.741,3.954
			c-2.985,3.95-5.827,8.033-8.369,12.277c-0.835,1.392-0.576,3.439-0.817,5.188c-1.672,0.007-3.344,0.015-5.016,0.021
			c-0.372-2.575-0.392-5.266-1.185-7.704c-2.291-7.044-4.894-13.986-7.483-21.279c6.666,2.907,8.99,1.473,9.612-5.494
			c0.089-0.992,0.059-1.995,0.06-2.994c0.013-7.823,0.15-15.649-0.041-23.469c-0.072-2.939-0.549-5.983-1.476-8.767
			c-2.47-7.414-5.308-14.705-7.953-22.062c-2.491-6.923-2.241-13.611,1.385-20.198c1.344-2.441,2.035-5.268,2.807-7.98
			c0.259-0.909-0.156-2.011-0.353-3.863c-2.414,5.904-4.758,10.804-6.417,15.925c-1.722,5.314-1.628,10.848,0.3,16.173
			c1.812,5.003,3.771,9.954,5.779,14.884c2.659,6.529,4.505,13.133,4.068,20.342c-0.371,6.137-0.021,12.314-0.139,18.472
			c-0.041,2.137-0.477,4.274-0.827,6.396c-0.412,2.492-1.619,2.914-3.851,1.639c-5.086-2.909-9.823-12.944-8.78-18.883
			c1.272-7.247,0.295-14.247-2.558-20.98c-0.569-1.343-1.608-2.486-2.432-3.722c-0.331,0.204-0.663,0.409-0.994,0.614
			c0.26,0.697,0.493,1.405,0.784,2.09c2.572,6.041,4.274,12.242,3.611,18.904c-0.37,3.714-0.696,7.433-1.085,11.606
			c-4.791-3.779-10.172-4.21-15.8-2.373c1.541,0.69,3.138,0.867,4.735,0.859c5.586-0.025,10.058,2.293,13.252,6.735
			c1.926,2.678,3.714,5.595,4.858,8.666c3.249,8.728,6.137,17.59,9.168,26.398c-11.313,0.037-22.626-0.045-33.934,0.184
			c-3.352,0.067-5.054-1.299-5.502-4.317c-0.533-3.597-0.91-7.231-1.101-10.863c-0.262-4.978-0.55-9.978-0.349-14.947
			c0.337-8.337,3.893-14.542,12.192-17.633c5.907-2.2,5.779-2.446,5.688-8.754c-0.063-4.324-0.068-8.651,0.005-12.976
			c0.101-6.009-0.218-11.931-1.988-17.757c-2.1-6.906-0.302-13.887,0.115-20.822c0.553-9.181,2.315-18.079,6.123-26.564
			c2.271-5.058,4.883-9.748,8.683-13.857c1.854-2.005,3.389-4.559,4.287-7.136c1.458-4.18,0.051-6.728-4.183-8.097
			c-4.105-1.328-8.365-2.17-12.512-3.381c-5.893-1.721-10.325-5.688-14.624-9.821C486.758,100.136,486.753,97.5,483.862,93.939z
			 M553.531,96.669c-0.93-2.33-1.355-4.129-2.302-5.593c-1.385-2.141-4.046-2.598-6.122-1.415
			c-5.752,3.275-6.087,12.657-0.631,16.318c1.699,1.14,3.377,1.021,4.354-0.518C550.635,102.612,552.041,99.511,553.531,96.669z
			 M513.472,87.07c-2.554,0.024-3.496,1.48-3.489,3.847c0.008,2.795,2.066,4.995,4.551,4.806c1.847-0.14,4.167-2.967,4.131-5.032
			C518.631,88.769,516.104,87.008,513.472,87.07z"/>
		<path fill-rule="evenodd" clip-rule="evenodd" fill="#616161" d="M392.845,151.82c0.951-3.161,1.601-6.456,2.925-9.452
			c1.946-4.403,4.342-8.61,6.608-12.869c1.842-3.462,4.421-6.1,8.033-7.902c2.742-1.368,5.155-3.396,7.97-5.303
			c-5.003-1.84-11.39-1.13-12.653-8.129c0.689-1.074,1.654-2.067,1.994-3.242c0.367-1.271,0.151-2.711,0.189-4.078
			c-1.358,0.035-2.717,0.071-4.075,0.106c0.586-0.689,1.068-1.523,1.78-2.042c2.345-1.709,4.773-3.304,7.169-4.943
			c2.872-1.846,3.794-4.717,4.146-7.887c8.688-9.564,19.206-11.048,30.927-6.9c8.049,2.848,11.891,7.911,11.973,16.443
			c0.049,5.126,0.009,10.404-1.12,15.356c-2.019,8.858-0.581,17.418,0.459,26.152c0.999,8.396,1.225,16.886,1.734,25.338
			c0.08,1.316,0.065,2.7-0.249,3.967c-1.47,5.921-3.061,11.814-4.608,17.716c-0.555-0.324-1.52-1.01-1.602-0.918
			c-0.982,1.117-1.757,2.417-2.733,3.539c-4.251,4.88-7.997,10.406-12.972,14.396c-6.185,4.96-9.874,10.483-9.931,18.497
			c-0.029,4.166-1.813,7.745-5.37,10.205c-2.696,1.865-5.468,0.892-5.305-2.168c0.245-4.583,0.548-9.297,4.576-12.712
			c1.109-0.94,2.021-2.69,2.134-4.139c0.823-10.563,4.735-19.941,12.199-27.212c7.744-7.547,8.903-16.423,7.442-26.152
			c-0.899-5.98-0.757-11.544,2.544-16.82c1.063-1.698,1.683-3.672,2.505-5.521c-0.325-0.186-0.65-0.371-0.977-0.557
			c-0.467,0.372-1.062,0.658-1.384,1.129c-4.953,7.241-6.256,15.214-4.868,23.79c1.334,8.238,0.01,15.596-6.196,21.957
			c-7.641,7.829-12.095,17.386-13.248,28.394c-0.125,1.199-0.866,2.433-1.6,3.447c-1.128,1.56-2.498,2.944-4.303,5.022
			c0-7.866,0.084-14.994-0.051-22.117c-0.04-2.11-0.098-4.6-1.174-6.243c-4.62-7.059-6.521-14.973-7.442-23.084
			c-0.98-8.643-0.971-17.326,3.78-25.209c2.491-4.132,4.94-8.29,7.339-12.475c0.378-0.66,0.391-1.53,0.572-2.303
			c-0.343-0.14-0.686-0.28-1.029-0.42c-4.573,7.009-10.064,13.633-11.834,22.074c-2.587,12.331-1.427,24.465,3.649,36.123
			c1.451,3.333,3.698,6.651,3.963,10.102c0.599,7.783,0.267,15.646,0.151,23.474c-0.052,3.492-1.524,6.471-4.403,8.585
			c-1.98,1.453-3.503,1.182-4.318-1.087c-0.716-1.993-1.117-4.196-1.161-6.316c-0.141-6.827,0.057-13.663-0.116-20.488
			c-0.058-2.266-0.517-4.643-1.353-6.746c-2.213-5.563-4.766-10.99-7.119-16.5c-1.225-2.868-2.314-5.793-3.465-8.692
			c0.422-1.685,0.389-3.708,1.345-4.995C398.024,156.988,397.941,155.599,392.845,151.82z M430.11,96.944
			c2.746-0.07,4.694-1.74,4.675-4.005c-0.018-1.979-2.534-4.698-4.347-4.696c-1.777,0.001-5.025,3.516-5.053,5.468
			C425.358,95.587,427.441,97.013,430.11,96.944z"/>
		<path fill-rule="evenodd" clip-rule="evenodd" fill="#616161" d="M447.934,273.962c-0.139,0.301-0.396,0.599-0.4,0.9
			c-0.087,5.635-0.593,6.148-5.715,4.019c-4.014-1.668-8.686-2.443-11.177-6.717c0.438-0.358,0.877-0.717,1.315-1.075
			c-0.945-0.04-1.89-0.08-2.833-0.12c-0.84-3.011-3.459-3.327-5.889-3.729c-4.75-0.785-9.531-1.388-14.291-2.119
			c-2.429-0.373-4.329-0.344-4.078,3.024c0.195,2.618-1.387,3.06-3.583,2.38c-5.403-1.673-10.025-3.895-14.169-8.45
			c-3.814-4.192-4.373-8.233-4.083-12.962c0.477-7.789,1.296-15.557,1.972-23.333c0.965-11.087,1.667-22.205,2.988-33.25
			c0.944-7.897,2.719-15.696,4.123-23.54c3.031,7.53,6.195,15.011,9.022,22.616c1.019,2.738,1.618,5.762,1.729,8.681
			c0.251,6.638,0.029,13.292,0.115,19.938c0.023,1.801,0.227,3.67,0.757,5.382c1.477,4.765,4.956,5.683,8.657,2.41
			c1.037-0.917,2.001-1.915,3.14-3.012c0.208,0.75,0.37,1.063,0.372,1.379c0.021,2.546-0.008,5.185,2.967,6.224
			c3.069,1.072,5.274-0.427,7.544-2.465c3.415-3.066,4.393-6.917,4.509-11.166c0.175-6.417,2.596-11.549,8.107-15.102
			c1.242-0.8,2.415-1.806,3.375-2.927c4.527-5.284,8.97-10.644,13.442-15.975c-0.305,6.138-0.769,12.272-0.877,18.415
			c-0.155,8.688,0.926,17.258,3.113,25.682c0.331,1.273,0.466,2.598,0.69,3.897c-2.729-1.873-5.355-4.067-9.988-3.089
			c1.426,0.903,2.042,1.587,2.742,1.688c3.733,0.534,5.553,2.609,5.66,6.361c0.155,5.468,0.726,10.944,0.506,16.393
			c-0.236,5.848-2.586,10.939-7.301,14.756c-1.281,1.038-2.342,2.357-3.411,3.626C446.91,272.791,447.6,273.526,447.934,273.962z
			 M404.572,263.759c2.771-6.819,0.718-14.234-5.048-16.813c-5.397-2.415-6.771-6.26-6.594-11.481
			c0.074-2.182-0.115-4.372-0.185-6.559c-0.516,0.004-1.032,0.008-1.548,0.012c-0.083,2.689-0.154,5.379-0.25,8.066
			c-0.189,5.271,1.317,9.43,6.802,11.418c3.403,1.234,5.234,3.924,5.691,7.544C403.738,258.314,404.121,260.672,404.572,263.759z"/>
		<path fill-rule="evenodd" clip-rule="evenodd" fill="#696969" d="M221.044,255.736c-1.912,1.487-3.932,2.856-5.704,4.493
			c-1.825,1.686-3.217,3.876-5.145,5.409c-2.875,2.284-5.853,1.439-7.237-1.979c-0.667-1.644-0.936-3.555-0.938-5.344
			c-0.048-38.492-0.118-76.984,0.036-115.476c0.033-8.189,2.743-15.643,8.223-22c18.707-21.706,37.341-43.474,56.012-65.21
			c0.648-0.755,1.322-1.522,2.109-2.118c3.314-2.512,6.518-1.647,7.806,2.361c0.698,2.173,0.672,4.579,0.973,6.88
			c-1.359,0.105-2.719,0.21-4.079,0.316c-0.275-2.169-0.549-4.338-0.928-7.331c-1.658,1.524-2.578,2.216-3.311,3.067
			c-18.629,21.647-37.312,43.25-55.763,65.047c-2.372,2.802-3.527,6.633-5.246,9.988c-1.949,2.071-1.483,4.711-1.697,7.192
			c-0.061,2.162-0.173,4.324-0.174,6.487c-0.011,35.643-0.008,71.287-0.005,106.929c0,1.665-0.09,3.345,0.101,4.989
			c0.117,1.009,0.688,1.966,1.375,3.803c2.79-3.47,5.052-6.281,7.315-9.095C216.86,254.677,218.952,255.207,221.044,255.736z"/>
		<path fill-rule="evenodd" clip-rule="evenodd" fill="#616161" d="M558.907,209.973c-1.798,8.947-3.367,17.948-5.475,26.821
			c-1.365,5.749-1.389,10.658,3.451,14.989c6.632,5.935,4.944,20.472-1.55,26.348c-1.103,0.997-2.934,1.635-4.441,1.659
			c-7.651,0.126-15.306-0.006-22.959-0.047c2.639-4.738,4.858-9.785,8.04-14.126c3.044-4.155,7.408-7.107,8.738-12.742
			c0.906-3.844,2.307-7.487,2.294-11.562c-0.011-3.445,0.283-6.954,0.978-10.325C549.63,222.993,555.032,216.862,558.907,209.973z"
			/>
		<path fill-rule="evenodd" clip-rule="evenodd" fill="#696969" d="M277.08,65.094c-0.038,21.148-0.087,42.295-0.112,63.443
			c-0.018,15.321,0.045,30.642-0.023,45.962c-0.04,9.118-2.698,17.268-8.815,24.295c-13.665,15.697-27.193,31.514-40.691,47.354
			c-1.985,2.331-3.499,5.064-5.23,7.61c-1.419-0.663-2.838-1.326-4.257-1.989c0.703-1.098,1.285-2.299,2.126-3.279
			c15.049-17.53,30.125-35.037,45.208-52.537c2.746-3.187,5.075-6.575,5.801-10.833c0.563-2.399,1.125-4.798,1.688-7.196
			c0.056-0.663,0.161-1.326,0.16-1.99c-0.014-36.622-0.037-73.245-0.059-109.867C274.277,65.743,275.679,65.418,277.08,65.094z"/>
		<path fill-rule="evenodd" clip-rule="evenodd" fill="#3D3D3D" d="M455.852,184.974c-4.473,5.331-8.915,10.69-13.442,15.975
			c-0.96,1.121-2.133,2.127-3.375,2.927c-5.512,3.553-7.933,8.685-8.107,15.102c-0.116,4.249-1.095,8.1-4.509,11.166
			c-2.27,2.038-4.475,3.537-7.544,2.465c-2.975-1.039-2.946-3.678-2.967-6.224c-0.002-0.315-0.164-0.629-0.372-1.379
			c-1.139,1.097-2.104,2.095-3.14,3.012c-3.701,3.272-7.18,2.354-8.657-2.41c-0.53-1.712-0.734-3.581-0.757-5.382
			c-0.086-6.646,0.136-13.301-0.115-19.938c-0.11-2.919-0.71-5.942-1.729-8.681c-2.828-7.605-5.992-15.086-9.022-22.616
			c0.026-0.652,0.053-1.303,0.08-1.955c0.252,0.005,0.505-0.005,0.756-0.032c1.151,2.899,2.24,5.825,3.465,8.692
			c2.353,5.51,4.905,10.937,7.119,16.5c0.836,2.104,1.295,4.48,1.353,6.746c0.172,6.825-0.025,13.661,0.116,20.488
			c0.044,2.12,0.445,4.323,1.161,6.316c0.815,2.269,2.338,2.54,4.318,1.087c2.879-2.114,4.351-5.093,4.403-8.585
			c0.116-7.828,0.448-15.69-0.151-23.474c-0.265-3.45-2.513-6.769-3.963-10.102c-5.076-11.658-6.236-23.792-3.649-36.123
			c1.771-8.441,7.262-15.065,11.834-22.074c0.343,0.14,0.686,0.28,1.029,0.42c-0.182,0.773-0.194,1.643-0.572,2.303
			c-2.399,4.185-4.848,8.343-7.339,12.475c-4.751,7.883-4.76,16.567-3.78,25.209c0.921,8.111,2.822,16.026,7.442,23.084
			c1.076,1.644,1.134,4.133,1.174,6.243c0.135,7.123,0.051,14.251,0.051,22.117c1.805-2.078,3.175-3.463,4.303-5.022
			c0.734-1.015,1.474-2.248,1.6-3.447c1.152-11.008,5.607-20.564,13.248-28.394c6.206-6.361,7.53-13.719,6.196-21.957
			c-1.388-8.576-0.085-16.548,4.868-23.79c0.322-0.472,0.917-0.757,1.384-1.129c0.326,0.186,0.651,0.371,0.977,0.557
			c-0.822,1.849-1.442,3.823-2.505,5.521c-3.301,5.276-3.443,10.84-2.544,16.82c1.461,9.729,0.302,18.605-7.442,26.152
			c-7.464,7.271-11.376,16.649-12.199,27.212c-0.113,1.448-1.024,3.198-2.134,4.139c-4.028,3.415-4.332,8.129-4.576,12.712
			c-0.164,3.06,2.608,4.033,5.305,2.168c3.558-2.46,5.341-6.039,5.37-10.205c0.057-8.014,3.746-13.537,9.931-18.497
			c4.975-3.989,8.721-9.516,12.972-14.396c0.977-1.122,1.751-2.422,2.733-3.539c0.082-0.092,1.047,0.594,1.602,0.918
			C456.053,184.441,455.987,184.716,455.852,184.974z"/>
		<path fill-rule="evenodd" clip-rule="evenodd" fill="#0D0D0D" d="M277.08,65.094c-1.401,0.324-2.803,0.648-4.204,0.973
			c-0.646-0.016-1.293-0.031-1.94-0.046c0.722-0.984,1.443-1.968,2.164-2.952c1.36-0.105,2.719-0.21,4.079-0.316
			c22.527-4.235,45.053-8.479,67.583-12.703c25.794-4.834,51.595-9.641,77.39-14.476c25.794-4.835,51.585-9.693,77.378-14.536
			c9.794-1.839,19.59-3.677,29.391-5.482c1.212-0.223,2.463-0.242,3.696-0.355c0.111,0.359,0.224,0.718,0.335,1.077
			c-1.047,0.493-2.047,1.235-3.148,1.442c-21.872,4.121-43.76,8.163-65.639,12.255c-25.796,4.826-51.586,9.686-77.379,14.527
			c-25.63,4.811-51.261,9.616-76.891,14.426C298.956,60.982,288.019,63.039,277.08,65.094z"/>
		<path fill-rule="evenodd" clip-rule="evenodd" fill="#404040" d="M415.328,290.548c7.245-5.061,10.213-5.071,15.05-0.06
			c1.455-0.936,2.859-2.076,4.449-2.821c5.652-2.648,11.148,0.538,11.267,6.741c0.189,9.994,0.104,19.993-0.015,29.988
			c-0.012,1.042-0.902,2.834-1.621,2.963c-2.133,0.383-2.184-1.472-2.187-3.007c-0.02-8.33-0.016-16.661-0.021-24.991
			c0-0.833,0.01-1.666-0.003-2.499c-0.071-4.838-1.491-6.96-4.563-6.833c-3.426,0.143-6.671,3.577-6.706,7.384
			c-0.076,8.329-0.023,16.66-0.029,24.99c-0.001,1.166,0.139,2.372-0.118,3.482c-0.144,0.622-1.067,1.594-1.464,1.516
			c-0.8-0.157-1.865-0.782-2.12-1.474c-0.383-1.036-0.192-2.295-0.194-3.459c-0.01-7.831-0.005-15.662-0.007-23.492
			c0-0.833,0.006-1.667-0.036-2.498c-0.219-4.402-1.43-6.262-4.106-6.342c-3.039-0.092-6.912,3.259-7.164,6.52
			c-0.231,2.981-0.093,5.993-0.098,8.991c-0.008,5.665,0.008,11.33-0.012,16.994c-0.004,1.161,0.074,2.382-0.258,3.46
			c-0.181,0.588-1.14,1.283-1.755,1.29c-0.58,0.006-1.546-0.742-1.676-1.311c-0.29-1.273-0.168-2.642-0.211-3.972
			c-0.364-10.972-0.749-21.943-1.043-32.916c-0.021-0.767,0.555-2.142,0.988-2.198c0.791-0.104,1.883,0.371,2.479,0.972
			C414.77,288.586,414.944,289.643,415.328,290.548z"/>
		<path fill-rule="evenodd" clip-rule="evenodd" fill="#3E3E3E" d="M819.287,333.676c1.219,0,2.524-0.274,3.634,0.074
			c1.225,0.384,2.205,1.491,3.408,2.019c6.168,2.706,11.848,0.245,13.782-6.266c0.814-2.739,0.744-5.743,1.148-9.244
			c-2.496,1.175-4.092,2.046-5.772,2.696c-6.834,2.645-13.275,0.449-16.561-6.02c-4.066-8.012-3.644-16.178,0.708-23.915
			c3.284-5.839,10.202-7.793,16.565-5.172c1.68,0.691,3.248,1.655,5.133,2.63c1.091-1.505,1.026-5.045,4.057-3.448
			c-0.192,12.813-0.34,25.415-0.589,38.014c-0.125,6.305-2.482,11.464-8.637,13.958c-6.417,2.6-12.002,0.808-16.809-3.797
			C819.332,334.695,819.31,334.186,819.287,333.676z M840.891,305.52c0-1.995,0.015-3.99-0.003-5.984
			c-0.04-4.779-1.729-7.04-6.487-8.711c-4.229-1.485-7.974-0.478-10.732,2.894c-4.479,5.47-4.624,17.452-0.28,23.037
			c2.66,3.422,6.467,4.576,10.625,3.227c4.968-1.615,6.831-4.04,6.876-8.978C840.905,309.176,840.891,307.347,840.891,305.52z"/>
		<path fill-rule="evenodd" clip-rule="evenodd" fill="#6A6A6A" d="M348.833,324.001c-3.106,1.461-5.769,3.425-8.685,3.938
			c-6.266,1.102-11.477-1.724-14.389-7.513c-3.947-7.847-4.147-16.094-0.77-24.117c3.509-8.336,11.224-11.32,19.781-8.254
			c0.892,0.319,1.774,0.665,3.182,1.195c0-4.409-0.01-8.372,0.006-12.336c0.005-1.161-0.094-2.37,0.203-3.462
			c0.16-0.586,1.052-1.331,1.63-1.346c0.608-0.015,1.635,0.655,1.774,1.205c0.319,1.26,0.264,2.629,0.266,3.954
			c0.015,11.304-0.087,22.606,0.057,33.907c0.057,4.465,0.718,8.919,0.954,13.386c0.058,1.105-0.471,2.241-0.729,3.362
			c-0.888-0.756-1.854-1.439-2.631-2.295C349.073,325.174,348.991,324.422,348.833,324.001z M347.952,306.13
			c0-2.489,0.011-4.979-0.002-7.47c-0.032-5.914-4.63-9.624-10.452-8.355c-3.188,0.695-5.824,2.305-7.706,5.067
			c-4.304,6.318-4.116,18.997,0.409,25.107c2.771,3.742,7.078,5.364,10.895,4.102c3.83-1.267,6.686-5.143,6.83-9.486
			C348.025,312.11,347.945,309.119,347.952,306.13z"/>
		<path fill-rule="evenodd" clip-rule="evenodd" fill="#3E3E3E" d="M520.978,279.761c-3.031-8.809-5.919-17.671-9.168-26.398
			c-1.145-3.071-2.933-5.988-4.858-8.666c-3.194-4.442-7.666-6.761-13.252-6.735c-1.598,0.008-3.194-0.169-4.735-0.859
			c5.628-1.837,11.009-1.406,15.8,2.373c0.389-4.174,0.715-7.893,1.085-11.606c0.663-6.662-1.039-12.863-3.611-18.904
			c-0.291-0.685-0.524-1.393-0.784-2.09c0.331-0.205,0.663-0.41,0.994-0.614c0.823,1.235,1.862,2.379,2.432,3.722
			c2.853,6.733,3.83,13.733,2.558,20.98c-1.043,5.938,3.694,15.974,8.78,18.883c2.231,1.275,3.438,0.854,3.851-1.639
			c0.351-2.121,0.786-4.259,0.827-6.396c0.118-6.157-0.232-12.335,0.139-18.472c0.437-7.209-1.409-13.813-4.068-20.342
			c-2.008-4.93-3.968-9.881-5.779-14.884c-1.928-5.325-2.021-10.859-0.3-16.173c1.659-5.121,4.003-10.021,6.417-15.925
			c0.196,1.852,0.611,2.954,0.353,3.863c-0.771,2.712-1.463,5.539-2.807,7.98c-3.626,6.586-3.876,13.275-1.385,20.198
			c2.646,7.356,5.483,14.647,7.953,22.062c0.927,2.783,1.403,5.827,1.476,8.767c0.191,7.819,0.054,15.646,0.041,23.469
			c-0.001,0.999,0.029,2.002-0.06,2.994c-0.622,6.967-2.946,8.401-9.612,5.494c2.59,7.293,5.192,14.235,7.483,21.279
			c0.793,2.438,0.813,5.129,1.185,7.704l-0.481,0.056L520.978,279.761z"/>
		<path fill-rule="evenodd" clip-rule="evenodd" fill="#414141" d="M507.849,296.146c2.094-2.328,3.277-4.33,5.027-5.429
			c2.598-1.632,5.496-3.294,8.449-3.744c5.183-0.79,8.771,2.437,9.51,7.95c0.396,2.954,0.293,5.981,0.309,8.977
			c0.035,6.831,0.076,13.662-0.07,20.49c-0.023,1.051-0.893,2.843-1.612,2.976c-2.117,0.391-2.202-1.443-2.206-2.99
			c-0.018-7.497-0.014-14.994-0.023-22.49c-0.002-1.5,0.038-3.003-0.058-4.496c-0.447-6.975-4.977-9.294-10.942-5.52
			c-4.565,2.889-6.707,7.458-7.225,12.559c-0.62,6.11-0.539,12.29-0.887,18.433c-0.093,1.636,0.981,4.319-1.61,4.52
			c-3.205,0.247-2.194-2.723-2.229-4.473c-0.166-8.493-0.125-16.989-0.283-25.481c-0.046-2.481-0.633-4.951-0.715-7.436
			c-0.03-0.919,0.479-2.485,1.086-2.678c1.608-0.511,2.303,0.679,2.485,2.234C507.085,291.497,507.434,293.435,507.849,296.146z"/>
		<path fill-rule="evenodd" clip-rule="evenodd" fill="#3F3F3F" d="M776.303,296.637c2.004-2.38,3.173-4.254,4.795-5.568
			c1.9-1.539,4.049-3.063,6.345-3.77c6.624-2.042,11.795,1.751,12.328,9.036c0.34,4.638,0.119,9.316,0.132,13.978
			c0.012,4.661,0.032,9.323-0.021,13.982c-0.016,1.393,0.448,3.316-1.97,3.174c-2.233-0.131-1.886-1.955-1.892-3.389
			c-0.031-7.99,0.009-15.981-0.039-23.972c-0.011-1.819-0.018-3.7-0.464-5.441c-0.989-3.855-3.8-5.289-7.638-4.156
			c-4.543,1.343-7.436,4.606-8.79,8.856c-1.194,3.752-1.781,7.765-2.102,11.707c-0.349,4.3-0.029,8.651-0.113,12.977
			c-0.026,1.336,0.662,3.361-1.719,3.411c-2.601,0.055-2.116-2.068-2.13-3.638c-0.047-5.493,0.108-10.99-0.058-16.479
			c-0.17-5.643-0.7-11.275-0.895-16.919c-0.036-1.063,0.766-2.154,1.182-3.233c0.784,0.871,1.986,1.628,2.262,2.638
			C776.032,291.719,776.01,293.755,776.303,296.637z"/>
		<path fill-rule="evenodd" clip-rule="evenodd" fill="#3F3F3F" d="M636.412,307.323c0.94-3.91,1.461-8.093,2.97-11.881
			c2.214-5.564,6.644-8.594,12.817-8.63c6.145-0.036,10.635,2.857,13.043,8.356c3.572,8.156,3.532,16.575,0.002,24.725
			c-2.478,5.717-7.104,8.501-13.521,8.311c-6.277-0.186-10.441-3.406-12.563-8.949C637.76,315.595,637.348,311.558,636.412,307.323z
			 M640.402,307.315c0.758,3.707,1.159,7.199,2.221,10.478c1.389,4.292,4.422,6.964,9.186,7.158
			c4.715,0.191,8.261-1.935,10.063-6.64c2.786-7.267,2.754-14.668-0.14-21.913c-1.64-4.109-5.023-6.273-9.36-6.309
			c-4.36-0.033-7.839,2.109-9.322,6.272C641.786,299.909,641.243,303.714,640.402,307.315z"/>
		<path fill-rule="evenodd" clip-rule="evenodd" fill="#6A6A6A" d="M15.364,296.689c1.225-1.714,1.881-3.124,2.959-4.035
			c2.128-1.801,4.285-3.805,6.793-4.868c6.479-2.745,11.749,0.079,12.994,6.984c0.702,3.893,0.659,7.938,0.745,11.919
			c0.114,5.328,0.041,10.659,0.017,15.988c-0.005,1.159,0.057,2.383-0.295,3.451c-0.189,0.576-1.198,1.229-1.82,1.213
			c-0.569-0.017-1.445-0.801-1.6-1.398c-0.283-1.1-0.161-2.311-0.163-3.475c-0.009-6.829,0.004-13.657-0.013-20.486
			c-0.003-1.497-0.012-3.004-0.167-4.49c-0.77-7.361-5.928-9.668-11.864-5.18c-4.879,3.69-6.654,9.067-6.958,14.895
			c-0.268,5.15-0.076,10.323-0.118,15.485c-0.009,1.16,0.054,2.384-0.3,3.45c-0.19,0.573-1.208,1.222-1.829,1.199
			c-0.569-0.021-1.437-0.813-1.59-1.413c-0.281-1.101-0.123-2.312-0.165-3.476c-0.386-10.805-0.802-21.609-1.118-32.418
			c-0.027-0.93,0.412-2.538,0.965-2.7c1.805-0.527,2.077,0.993,2.296,2.388C14.464,291.814,14.867,293.896,15.364,296.689z"/>
		<path fill-rule="evenodd" clip-rule="evenodd" fill="#3F3F3F" d="M457.309,307.081c0.999-3.991,1.537-8.177,3.104-11.931
			c2.313-5.536,6.866-8.438,13.014-8.335c5.894,0.098,10.31,2.871,12.626,8.22c3.684,8.507,3.622,17.194-0.331,25.607
			c-2.297,4.889-6.353,7.411-11.946,7.572c-5.745,0.165-9.991-2.086-12.817-7.01C458.479,316.888,457.823,312.139,457.309,307.081z
			 M461.315,307.311c0.787,3.837,1.185,7.328,2.254,10.602c1.407,4.304,4.522,6.877,9.261,7.031
			c4.652,0.152,8.215-2.073,9.989-6.766c2.688-7.109,2.578-14.358-0.057-21.458c-1.572-4.235-5.467-6.817-9.639-6.646
			c-4.373,0.18-7.781,2.253-9.226,6.422C462.666,300.051,462.116,303.843,461.315,307.311z"/>
		<path fill-rule="evenodd" clip-rule="evenodd" fill="#6A6A6A" d="M304.285,318.638c-1.427,1.665-2.162,2.724-3.094,3.565
			c-1.836,1.659-3.556,3.685-5.726,4.692c-6.278,2.912-12.595,1.357-14.25-6.971c-0.225-1.131-0.241-2.315-0.244-3.475
			c-0.021-7.982-0.013-15.964-0.01-23.946c0-0.831-0.178-1.747,0.11-2.469c0.308-0.772,1.072-1.362,1.637-2.032
			c0.695,0.728,1.706,1.346,2.004,2.209c0.361,1.046,0.134,2.3,0.136,3.463c0.005,6.319,0.002,12.638,0.003,18.957
			c0,1.164-0.027,2.329,0.017,3.491c0.13,3.388,0.275,7.053,4.001,8.422c3.959,1.455,7.095-0.775,9.631-3.639
			c3.963-4.471,5.05-10.026,5.354-15.74c0.221-4.146,0.068-8.312,0.107-12.469c0.011-1.161-0.018-2.349,0.228-3.467
			c0.106-0.483,0.883-1.178,1.317-1.151c0.708,0.044,1.735,0.436,1.99,0.979c0.397,0.845,0.308,1.938,0.339,2.928
			c0.349,10.951,0.716,21.902,0.95,32.856c0.018,0.857-0.928,1.735-1.425,2.604c-0.71-0.769-1.79-1.43-2.055-2.329
			C304.773,323.293,304.679,321.341,304.285,318.638z"/>
		<path fill-rule="evenodd" clip-rule="evenodd" fill="#3E3E3E" d="M558.907,209.973c-3.875,6.89-9.277,13.021-10.924,21.016
			c-0.694,3.371-0.988,6.88-0.978,10.325c0.013,4.074-1.388,7.718-2.294,11.562c-1.33,5.635-5.694,8.587-8.738,12.742
			c-3.182,4.341-5.401,9.388-8.04,14.126c-0.33,0.021-0.659,0.04-0.988,0.06c0.241-1.748-0.018-3.796,0.817-5.188
			c2.542-4.244,5.384-8.327,8.369-12.277c1.162-1.538,3.018-2.553,4.741-3.954c-5.688-5.318-6.655-10.932-5.304-17.467
			c0.728-3.516,0.75-7.377,0.154-10.926c-1.249-7.436,0.563-14.209,3.629-20.729c2.616-5.563,5.396-11.104,8.691-16.278
			c4.136-6.495,4.341-13.447,3.725-20.666c-0.067-0.788-0.207-1.569-0.438-3.277c1.189,0.965,2.039,1.299,2.171,1.815
			c1.639,6.438,1.815,12.797-1.452,18.867c-2.286,4.248-4.645,8.456-6.872,12.734c-1.914,3.679-3.746,7.406-5.515,11.158
			c-2.835,6.019-1.897,12.466-1.522,18.702c0.224,3.72,0.103,7.248-0.758,10.806c-1.011,4.183,0.145,7.785,2.813,11.395
			c3.899-2.71,4.426-6.591,4.726-10.541c0.338-4.459,0.197-8.998,1.012-13.364c0.593-3.172,2.181-6.234,3.718-9.139
			c2.565-4.847,5.433-9.535,8.201-14.274c0.622-1.064,1.351-2.391,2.159-0.085C559.644,208.068,559.275,209.021,558.907,209.973z"/>
		<path fill-rule="evenodd" clip-rule="evenodd" fill="#6A6A6A" d="M265.465,307.134c-1.241,4.737-1.887,9.229-3.607,13.263
			c-2.28,5.345-6.801,7.77-12.771,7.775c-5.865,0.006-10.024-2.725-12.342-7.708c-4.073-8.758-3.926-17.79,0.367-26.442
			c2.384-4.804,6.687-7.23,12.203-7.174c5.445,0.057,9.928,2.226,12.156,7.18C263.335,298.172,264.181,302.776,265.465,307.134z
			 M237.556,307.512c0.604,3.255,0.906,6.771,1.95,10.05c1.626,5.109,5.161,7.461,10.039,7.395c4.58-0.062,7.88-2.427,9.597-7.341
			c2.323-6.65,2.368-13.417,0.031-20.075c-1.752-4.993-5.426-7.583-10.063-7.505c-4.45,0.076-8.419,3.055-9.825,7.895
			C238.413,300.932,238.146,304.109,237.556,307.512z"/>
		<path fill-rule="evenodd" clip-rule="evenodd" fill="#6A6A6A" d="M131.787,326.977c-3.194,1.372-4.837,0.026-6.254-2.122
			c-3.287-4.981-6.636-9.924-10.282-15.362c-1.137,1.266-2.077,2.104-2.764,3.113c-2.803,4.125-5.47,8.346-8.306,12.448
			c-1.864,2.697-1.956,2.634-6.156,1.687c3.442-4.856,6.772-9.562,10.112-14.259c0.963-1.355,1.865-2.771,2.959-4.014
			c1.487-1.688,1.271-3.118,0.018-4.873c-2.606-3.653-5.033-7.434-7.502-11.184c-0.807-1.226-1.513-2.517-2.315-3.861
			c2.79-1.529,4.183-0.203,5.465,1.818c2.477,3.907,5.059,7.746,8.161,12.472c2.91-4.495,5.363-8.339,7.873-12.146
			c1.698-2.574,1.733-2.552,5.781-2.35c-2.96,4.536-5.72,8.795-8.511,13.031c-2.997,4.547-3.024,4.548,0.115,8.944
			c2.996,4.194,6.044,8.353,9.028,12.557C130.121,324.162,130.893,325.547,131.787,326.977z"/>
		<path fill-rule="evenodd" clip-rule="evenodd" fill="#404040" d="M600.696,306.166c0-3.988-0.07-7.979,0.027-11.966
			c0.056-2.281-0.708-3.438-3.145-3.246c-1.318,0.104-2.685,0.126-3.972-0.117c-0.592-0.111-1.047-0.946-1.563-1.453
			c0.522-0.518,1.009-1.082,1.585-1.529c0.218-0.169,0.646-0.06,0.976-0.094c6.081-0.619,6.079-0.619,6.104-6.882
			c0.006-1.33-0.164-2.708,0.139-3.97c0.172-0.716,1.135-1.719,1.745-1.722c0.646-0.004,1.783,0.976,1.854,1.619
			c0.254,2.301,0.108,4.644,0.185,6.968c0.124,3.756,0.214,3.834,3.997,3.961c1.328,0.044,2.704-0.206,3.979,0.06
			c2.065,0.43,5.78-1.471,5.877,1.473c0.101,3.082-3.608,1.268-5.605,1.648c-1.443,0.275-2.991,0.165-4.476,0.033
			c-2.717-0.241-3.874,0.749-3.823,3.623c0.138,7.81,0.043,15.623,0.069,23.435c0.009,2.813,0.681,5.42,3.59,6.529
			c2.9,1.105,5.616,0.3,7.822-1.79c1.189-1.126,1.962-2.7,3.18-3.784c0.561-0.5,1.849-0.599,2.589-0.313
			c0.38,0.146,0.638,1.703,0.342,2.338c-2.53,5.438-9.366,8.547-15.101,6.885c-4.07-1.181-5.596-4.383-6.13-8.251
			c-0.091-0.658-0.17-1.324-0.173-1.986c-0.016-3.823-0.008-7.645-0.008-11.468C600.738,306.166,600.718,306.166,600.696,306.166z"
			/>
		<path fill-rule="evenodd" clip-rule="evenodd" fill="#6A6A6A" d="M172.43,319.342c2.153,0.978,3.04,1.935,1.087,4.06
			c-6.809,7.411-21.218,6.412-25.703-3.779c-3.532-8.029-3.6-16.262,0.135-24.166c4.574-9.683,17.219-11.632,24.784-4.104
			c0.701,0.697,1.454,1.471,1.794,2.357c0.223,0.58-0.035,1.823-0.47,2.067c-0.683,0.382-1.854,0.478-2.531,0.132
			c-0.825-0.421-1.311-1.465-2.013-2.169c-5.602-5.623-13.884-4.717-17.6,2.309c-3.983,7.532-3.931,15.46,0.093,22.963
			c3.461,6.453,10.714,7.797,16.651,3.536C169.995,321.588,171.179,320.415,172.43,319.342z"/>
		<path fill-rule="evenodd" clip-rule="evenodd" fill="#111111" d="M217.952,251.771c1.419,0.663,2.838,1.326,4.257,1.989
			c16.341,3.793,32.693,7.544,49.022,11.391c17.946,4.226,35.874,8.531,53.802,12.831c1.332,0.319,2.607,0.871,3.909,1.314
			c-0.079,0.434-0.158,0.868-0.237,1.302c-1.127-0.092-2.288-0.041-3.376-0.297c-32.179-7.563-64.351-15.154-96.523-22.741
			c-2.587-0.61-5.174-1.216-7.761-1.823c-2.093-0.529-4.185-1.06-6.277-1.59c-0.913-0.119-1.827-0.238-2.74-0.357
			c-0.682-0.88-1.362-1.759-2.044-2.638c0.99-0.101,1.98-0.202,2.971-0.303c0.699,0.354,1.399,0.707,2.098,1.061
			C216.019,251.863,216.985,251.817,217.952,251.771z"/>
		<path fill-rule="evenodd" clip-rule="evenodd" fill="#404040" d="M690.762,296.632c1.518-1.981,2.261-3.267,3.299-4.234
			c1.8-1.679,3.596-3.518,5.734-4.636c2.915-1.524,6.176-1.571,8.956,0.537c2.892,2.192,3.478,5.545,3.675,8.908
			c0.031,0.529-0.937,1.605-1.373,1.57c-0.782-0.063-1.877-0.606-2.185-1.257c-0.55-1.167-0.481-2.608-0.903-3.856
			c-1.13-3.35-3.345-4.289-6.612-2.831c-3.499,1.563-6.2,4.221-7.402,7.717c-1.436,4.177-2.438,8.591-2.922,12.98
			c-0.489,4.433-0.028,8.964-0.192,13.444c-0.032,0.862-0.903,2.26-1.61,2.419c-1.712,0.386-2.196-0.964-2.196-2.477
			c0-5.981,0.1-11.966-0.05-17.945c-0.124-4.97-0.544-9.932-0.837-14.898c-0.049-0.828-0.364-1.739-0.117-2.462
			c0.303-0.89,1.066-1.622,1.632-2.423c0.699,0.759,1.784,1.415,2.021,2.299C690.217,291.496,690.339,293.618,690.762,296.632z"/>
		<path fill-rule="evenodd" clip-rule="evenodd" fill="#6C6C6C" d="M206.866,299.757c0.002,7.658,0.012,15.316-0.009,22.975
			c-0.003,1.158,0.048,2.383-0.312,3.446c-0.192,0.568-1.227,1.204-1.849,1.173c-0.571-0.028-1.45-0.84-1.573-1.434
			c-0.264-1.282-0.156-2.646-0.157-3.978c-0.006-13.984,0.009-27.97-0.012-41.954c-0.007-4.949-0.045-4.948-4.891-5.01
			c-1.664-0.021-3.347,0.085-4.982-0.145c-0.564-0.079-1.169-0.938-1.424-1.573c-0.094-0.235,0.756-1.228,1.188-1.236
			c4.15-0.085,8.316-0.19,12.441,0.147c0.62,0.051,1.485,2.345,1.506,3.614C206.933,283.772,206.864,291.765,206.866,299.757z"/>
		<path fill-rule="evenodd" clip-rule="evenodd" fill="#414141" d="M744.8,308.01c0,5.479-0.001,10.959,0,16.438
			c0,1.576-0.126,3.346-2.228,2.925c-0.723-0.145-1.587-1.889-1.6-2.912c-0.123-9.629-0.059-19.26-0.085-28.89
			c-0.013-4.546-0.048-4.542-4.659-4.599c-1.824-0.022-3.657,0.017-5.469-0.153c-0.471-0.044-1.304-0.888-1.229-1.162
			c0.18-0.657,0.784-1.688,1.245-1.703c4.14-0.13,8.295-0.202,12.422,0.07c0.599,0.039,1.502,1.974,1.531,3.052
			C744.883,296.718,744.801,302.365,744.8,308.01z"/>
		<path fill-rule="evenodd" clip-rule="evenodd" fill="#414141" d="M565.822,308.075c-0.001,5.479-0.007,10.96,0.002,16.439
			c0.002,1.613-0.224,3.324-2.288,2.861c-0.724-0.163-1.531-1.931-1.544-2.975c-0.12-9.464-0.063-18.929-0.079-28.394
			c-0.008-5.007-0.028-5.006-5.223-5.035c-1.494-0.009-3.007,0.104-4.474-0.102c-0.636-0.089-1.178-0.846-1.762-1.298
			c0.631-0.592,1.236-1.66,1.897-1.695c3.477-0.184,6.971-0.039,10.453-0.142c2.483-0.073,3.071,1.216,3.043,3.401
			C565.775,296.783,565.824,302.43,565.822,308.075z"/>
		<path fill-rule="evenodd" clip-rule="evenodd" fill="#6C6C6C" d="M72.989,308.22c0,5.474,0.015,10.947-0.012,16.42
			c-0.006,1.311,0.115,2.868-1.894,2.782c-1.832-0.078-1.954-1.495-1.957-2.872c-0.02-8.79-0.021-17.58-0.03-26.371
			c-0.001-1.325-0.076-2.656-0.001-3.979c0.129-2.313-0.859-3.341-3.208-3.236c-1.985,0.087-3.989,0.078-5.962-0.111
			c-0.629-0.061-1.19-0.835-1.782-1.283c0.489-0.543,0.959-1.538,1.468-1.558c3.806-0.145,7.622-0.191,11.428-0.074
			c2.167,0.067,1.931,1.911,1.939,3.365C73.008,296.942,72.99,302.581,72.989,308.22z"/>
		<path fill-rule="evenodd" clip-rule="evenodd" fill="#414141" d="M447.934,273.962c-0.334-0.436-1.023-1.171-0.947-1.26
			c1.069-1.269,2.13-2.588,3.411-3.626c4.715-3.816,7.064-8.908,7.301-14.756c0.22-5.448-0.351-10.925-0.506-16.393
			c-0.107-3.752-1.927-5.827-5.66-6.361c-0.7-0.101-1.316-0.784-2.742-1.688c4.633-0.979,7.26,1.216,9.988,3.089
			c0.271,7.941,1.084,15.912,0.657,23.815C459.023,264.417,453.999,269.718,447.934,273.962z"/>
		<path fill-rule="evenodd" clip-rule="evenodd" fill="#444444" d="M383.458,328.599c-2.73-0.087-5.021-2.436-5.034-5.159
			c-0.013-2.842,2.631-5.43,5.445-5.326c2.822,0.103,5.223,2.852,4.997,5.72C388.653,326.529,386.204,328.688,383.458,328.599z"/>
		<path fill-rule="evenodd" clip-rule="evenodd" fill="#6F6F6F" d="M71.217,280.078c-2.52,0.103-4.191-1.454-4.161-3.873
			c0.026-2.068,1.7-3.821,3.75-3.925c2.214-0.112,4.129,1.759,4.146,4.047C74.968,278.581,73.573,279.983,71.217,280.078z"/>
		<path fill-rule="evenodd" clip-rule="evenodd" fill="#444444" d="M746.754,276.035c0.1,2.347-1.539,4.046-3.974,4.098
			c-2.37,0.052-3.741-1.094-3.987-3.466c-0.236-2.245,1.471-4.328,3.641-4.513C744.577,271.972,746.66,273.844,746.754,276.035z"/>
		<path fill-rule="evenodd" clip-rule="evenodd" fill="#444444" d="M563.845,280.131c-2.551,0.124-4.052-1.292-4.093-3.818
			c-0.039-2.389,1.286-3.693,3.466-4.088c1.99-0.361,4.305,1.655,4.497,3.696C567.917,278.079,566.134,280.02,563.845,280.131z"/>
		<path fill-rule="evenodd" clip-rule="evenodd" fill="#616161" d="M392.95,167.003c-0.251,0.026-0.504,0.037-0.756,0.032
			c0.217-5.072,0.434-10.144,0.651-15.215c5.096,3.779,5.179,5.168,1.45,10.188C393.339,163.295,393.372,165.318,392.95,167.003z"/>
		<path fill-rule="evenodd" clip-rule="evenodd" fill="#414141" d="M483.862,93.939c2.891,3.561,2.896,6.196,0.017,9.078
			c-2.873-0.47-3.006-2.601-2.938-4.852C481.004,96.127,481.034,94.066,483.862,93.939z"/>
		<path fill-rule="evenodd" clip-rule="evenodd" fill="#3F3F3F" d="M403.837,100.951c1.358-0.035,2.717-0.071,4.075-0.106
			c-0.038,1.367,0.178,2.807-0.189,4.078c-0.34,1.175-1.305,2.168-1.994,3.242C402.843,106.352,401.952,104.016,403.837,100.951z"/>
		<path fill-rule="evenodd" clip-rule="evenodd" fill="#4B4B4B" d="M416.932,86.079c-0.352,3.17-1.274,6.041-4.146,7.887
			c0.318-1.786,0.327-3.715,1.063-5.308C414.356,87.558,415.869,86.922,416.932,86.079z"/>
		<path fill-rule="evenodd" clip-rule="evenodd" fill="#434343" d="M429.124,270.969c0.943,0.04,1.888,0.08,2.833,0.12
			c-0.438,0.358-0.877,0.717-1.315,1.075C430.136,271.766,429.629,271.367,429.124,270.969z"/>
		<path fill-rule="evenodd" clip-rule="evenodd" fill="#3C3C3C" d="M553.531,96.669c-1.49,2.841-2.896,5.943-4.701,8.792
			c-0.977,1.539-2.654,1.658-4.354,0.518c-5.456-3.661-5.121-13.042,0.631-16.318c2.076-1.183,4.737-0.726,6.122,1.415
			C552.176,92.54,552.602,94.34,553.531,96.669z"/>
		<path fill-rule="evenodd" clip-rule="evenodd" fill="#3D3D3D" d="M513.47,87.068c2.635-0.061,5.161,1.701,5.194,3.622
			c0.036,2.065-2.284,4.892-4.131,5.032c-2.484,0.189-4.543-2.011-4.551-4.806C509.976,88.55,510.918,87.094,513.47,87.068z"/>
		<path fill-rule="evenodd" clip-rule="evenodd" fill="#3F3F3F" d="M430.11,96.944c-2.669,0.068-4.752-1.357-4.725-3.233
			c0.028-1.952,3.276-5.466,5.053-5.468c1.813-0.002,4.329,2.717,4.347,4.696C434.805,95.204,432.856,96.874,430.11,96.944z"/>
		<path fill-rule="evenodd" clip-rule="evenodd" fill="#3F3F3F" d="M404.572,263.759c-0.451-3.087-0.834-5.444-1.133-7.813
			c-0.457-3.62-2.288-6.31-5.691-7.544c-5.485-1.988-6.991-6.146-6.802-11.418c0.096-2.688,0.168-5.377,0.25-8.066
			c0.516-0.004,1.032-0.008,1.548-0.012c0.07,2.187,0.259,4.377,0.185,6.559c-0.177,5.222,1.196,9.066,6.594,11.481
			C405.29,249.524,407.342,256.939,404.572,263.759z"/>
		<path fill-rule="evenodd" clip-rule="evenodd" fill="none" d="M273.1,63.069c-0.721,0.983-1.442,1.967-2.164,2.952l0.076-0.06
			c-3.726-2.027-5.796,0.37-7.94,2.867c-15.699,18.285-31.504,36.48-47.083,54.867c-2.852,3.365-4.824,7.476-7.201,11.243
			c-0.312-0.365-0.624-0.73-0.936-1.096c1.719-3.354,2.875-7.186,5.246-9.988c18.452-21.798,37.134-43.4,55.763-65.047
			c0.733-0.852,1.653-1.543,3.311-3.067C272.551,58.731,272.825,60.9,273.1,63.069z"/>
		<path fill-rule="evenodd" clip-rule="evenodd" fill="none" d="M212.027,253.789c0.914,0.119,1.827,0.238,2.74,0.357
			c-2.263,2.813-4.525,5.625-7.315,9.095c-0.688-1.837-1.259-2.794-1.375-3.803c-0.191-1.645-0.101-3.324-0.101-4.989
			c-0.003-35.643-0.006-71.286,0.005-106.929c0-2.163,0.113-4.325,0.174-6.487c0.277-0.007,0.553-0.024,0.828-0.05
			c-0.003,34.491-0.011,68.983-0.001,103.473c0,1.829-0.078,3.702,0.277,5.476C207.751,252.384,208.941,254.359,212.027,253.789z"/>
		<path fill-rule="evenodd" clip-rule="evenodd" fill="#DEDEDE" d="M206.983,140.983c-0.275,0.026-0.551,0.043-0.828,0.05
			c0.214-2.48-0.252-5.121,1.697-7.192c0.312,0.366,0.624,0.731,0.936,1.096C208.186,136.953,207.584,138.967,206.983,140.983z"/>
		<path fill-rule="evenodd" clip-rule="evenodd" fill="none" d="M217.952,251.771c-0.966,0.047-1.933,0.093-2.899,0.139
			c0.793-1.238,1.45-2.594,2.399-3.699c13.1-15.26,26.322-30.416,39.329-45.756c4.908-5.789,10.86-10.886,13.376-18.435
			c0.311,0.367,0.621,0.734,0.931,1.102c-0.726,4.258-3.055,7.646-5.801,10.833c-15.083,17.5-30.159,35.007-45.208,52.537
			C219.237,249.472,218.654,250.673,217.952,251.771z"/>
		<path fill-rule="evenodd" clip-rule="evenodd" fill="none" d="M270.936,66.021c0.647,0.015,1.293,0.031,1.94,0.046
			c0.022,36.622,0.044,73.245,0.059,109.867c0,0.664-0.104,1.327-0.16,1.99c-0.27,0.006-0.539,0.023-0.808,0.053
			c0-34.386,0.025-68.771-0.039-103.158c-0.006-2.954-0.597-5.906-0.916-8.859L270.936,66.021z"/>
		<path fill-rule="evenodd" clip-rule="evenodd" fill="#DFDFDF" d="M271.967,177.978c0.269-0.029,0.538-0.047,0.808-0.053
			c-0.562,2.398-1.125,4.797-1.688,7.196c-0.31-0.367-0.62-0.734-0.931-1.102C270.76,182.006,271.363,179.992,271.967,177.978z"/>
		<path fill-rule="evenodd" clip-rule="evenodd" fill="none" d="M840.891,305.52c0,1.827,0.015,3.656-0.002,5.484
			c-0.045,4.938-1.908,7.362-6.876,8.978c-4.158,1.35-7.965,0.195-10.625-3.227c-4.344-5.585-4.198-17.567,0.28-23.037
			c2.759-3.371,6.503-4.379,10.732-2.894c4.758,1.671,6.447,3.932,6.487,8.711C840.905,301.529,840.891,303.524,840.891,305.52z"/>
		<path fill-rule="evenodd" clip-rule="evenodd" fill="none" d="M347.949,306.13c-0.004,2.989,0.077,5.98-0.023,8.965
			c-0.145,4.344-3,8.22-6.83,9.486c-3.816,1.263-8.123-0.359-10.895-4.102c-4.525-6.11-4.713-18.789-0.409-25.107
			c1.882-2.763,4.519-4.372,7.706-5.067c5.821-1.269,10.42,2.441,10.452,8.355C347.963,301.15,347.952,303.641,347.949,306.13z"/>
		<path fill-rule="evenodd" clip-rule="evenodd" fill="none" d="M640.402,307.315c0.841-3.602,1.384-7.406,2.647-10.953
			c1.483-4.163,4.962-6.306,9.322-6.272c4.337,0.035,7.721,2.199,9.36,6.309c2.894,7.245,2.926,14.646,0.14,21.913
			c-1.803,4.705-5.349,6.831-10.063,6.64c-4.764-0.194-7.797-2.866-9.186-7.158C641.562,314.515,641.16,311.022,640.402,307.315z"/>
		<path fill-rule="evenodd" clip-rule="evenodd" fill="none" d="M461.315,307.311c0.801-3.468,1.351-7.26,2.583-10.814
			c1.444-4.169,4.853-6.242,9.226-6.422c4.172-0.172,8.066,2.41,9.639,6.646c2.635,7.1,2.744,14.349,0.057,21.458
			c-1.774,4.692-5.337,6.918-9.989,6.766c-4.738-0.154-7.854-2.728-9.261-7.031C462.5,314.639,462.103,311.147,461.315,307.311z"/>
		<path fill-rule="evenodd" clip-rule="evenodd" fill="none" d="M237.556,307.512c0.59-3.402,0.857-6.58,1.729-9.582
			c1.406-4.84,5.375-7.818,9.825-7.895c4.636-0.078,8.31,2.512,10.063,7.505c2.337,6.658,2.292,13.425-0.031,20.075
			c-1.717,4.914-5.017,7.279-9.597,7.341c-4.877,0.066-8.412-2.285-10.039-7.395C238.462,314.282,238.161,310.767,237.556,307.512z"
			/>
		<path fill-rule="evenodd" clip-rule="evenodd" fill="none" d="M212.954,250.849c-0.99,0.101-1.981,0.202-2.971,0.303
			c-0.333-1.606-0.956-3.213-0.958-4.82c-0.055-33.79-0.093-67.582,0.014-101.373c0.019-5.926,1.675-11.61,5.447-16.296
			c4.902-6.09,10.101-11.943,15.25-17.83c0.466-0.533,1.508-0.561,2.282-0.823c-1.75,4.928-3.5,9.856-5.25,14.784
			c-2.07,2.374-4.081,4.804-6.233,7.102c-1.442,1.539-3.085,2.889-4.638,4.324c-0.926,0.215-1.852,0.431-2.778,0.647
			c0.557,0.422,1.114,0.843,1.671,1.266c0.49,9.03,0.98,18.06,1.47,27.089c2.141-1.126,3.384-2.594,4.619-4.069
			c3.395-4.055,6.785-8.113,10.177-12.169c-1.409,4.284-2.819,8.568-4.229,12.853c-1.222,1.271-2.496,2.498-3.656,3.823
			c-2.445,2.793-4.831,5.638-7.242,8.461c-0.928,0.125-1.856,0.251-2.785,0.376c0.581,0.658,1.163,1.315,1.741,1.976
			c0.11,0.125,0.207,0.262,0.309,0.393c0.162,4.31,0.308,8.618,0.489,12.926c0.176,4.175,0.388,8.346,0.584,12.52
			c0.364,0.083,0.728,0.166,1.092,0.249c4.282-5.464,8.613-10.892,12.795-16.431c0.626-0.829,0.776-2.182,0.777-3.292
			c0.006-7.641-0.086-15.281-0.146-22.922c0.559-2.398,1.286-4.772,1.627-7.2c0.305-2.163,3.257-3.871,1.185-6.767
			c-1.002,1.191-1.816,2.16-2.631,3.128c-0.061-9.052-0.122-18.104-0.182-27.157c1.1-3.686,2.151-7.387,3.327-11.048
			c0.412-1.28,1.261-2.523-1.138-2.314c0.875-1.546,1.528-3.279,2.658-4.608c9.497-11.166,19.066-22.269,28.655-33.356
			c1.123-1.298,2.487-2.388,4.573-4.365c0.491,3.072,1.057,4.97,1.06,6.868c0.053,33.488,0.096,66.977-0.013,100.464
			c-0.022,7.016-2.321,13.38-7.018,18.787c-9.066,10.438-18.11,20.895-27.088,31.409
			C228.131,232.738,220.566,241.813,212.954,250.849z M217.987,237.985c0.288-0.403,0.576-0.807,0.864-1.209
			c3.386-4.211,6.771-8.422,10.157-12.633c0.607-0.704,1.214-1.408,1.822-2.112c-0.023-7.705-0.046-15.41-0.07-23.115
			c0-1.306,0-2.611,0-4.971c-1.466,1.71-2.082,2.427-2.696,3.144c-3.033,3.604-6,7.267-9.134,10.779
			c-1.13,1.268-2.662,2.177-4.01,3.249c-0.819-0.068-1.638-0.137-2.458-0.205c0.309,0.638,0.528,1.346,0.953,1.892
			c0.384,0.495,0.993,0.814,1.502,1.212c0.414,7.009,0.829,14.019,1.243,21.027c-0.013,0.931-0.026,1.861-0.04,2.793
			c0.13,0.723,0.26,1.446,0.39,2.169C217.003,239.332,217.495,238.659,217.987,237.985z"/>
		<path fill-rule="evenodd" clip-rule="evenodd" fill="#6A6A6A" d="M232.019,110.009c-0.774,0.262-1.816,0.291-2.282,0.823
			c-5.15,5.886-10.349,11.739-15.25,17.83c-3.772,4.686-5.428,10.37-5.447,16.296c-0.107,33.791-0.068,67.583-0.014,101.373
			c0.002,1.607,0.625,3.214,0.958,4.82c0.682,0.879,1.362,1.758,2.044,2.638c-3.086,0.57-4.276-1.405-4.769-3.857
			c-0.355-1.773-0.277-3.646-0.277-5.476c-0.01-34.49-0.002-68.982,0.001-103.473c0.602-2.016,1.203-4.03,1.805-6.045
			c2.377-3.767,4.35-7.878,7.201-11.243c15.579-18.387,31.384-36.582,47.083-54.867c2.144-2.497,4.214-4.894,7.94-2.867
			c0.319,2.953,0.91,5.905,0.916,8.859c0.064,34.386,0.04,68.772,0.039,103.158c-0.604,2.015-1.207,4.028-1.811,6.042
			c-2.516,7.549-8.468,12.646-13.376,18.435c-13.006,15.34-26.229,30.496-39.329,45.756c-0.949,1.105-1.606,2.461-2.399,3.699
			c-0.699-0.354-1.399-0.706-2.098-1.061c7.612-9.035,15.177-18.11,22.848-27.095c8.978-10.515,18.022-20.971,27.088-31.409
			c4.697-5.406,6.995-11.771,7.018-18.787c0.109-33.487,0.065-66.976,0.013-100.464c-0.003-1.898-0.568-3.796-1.06-6.868
			c-2.086,1.977-3.451,3.066-4.573,4.365c-9.588,11.087-19.158,22.19-28.655,33.356c-1.13,1.329-1.784,3.062-2.658,4.608
			C232.656,109.04,232.337,109.524,232.019,110.009z"/>
		<path fill-rule="evenodd" clip-rule="evenodd" fill="#6A6A6A" d="M230.786,121.918c0.061,9.053,0.122,18.105,0.182,27.157
			l0.088-0.093c-3.392,4.057-6.783,8.115-10.177,12.169c-1.235,1.475-2.479,2.943-4.619,4.069c-0.49-9.029-0.98-18.059-1.47-27.089
			c1.397,1.318,2.794,2.636,4.191,3.954c0.284,4.054,0.568,8.108,0.852,12.163c0.335,0.125,0.67,0.251,1.005,0.377
			c1.042-1.546,2.083-3.091,3.124-4.637c0.612-1.368,1.224-2.736,1.836-4.104c0.368,0.179,0.736,0.359,1.104,0.538
			c-0.287-1.117-0.573-2.232-0.859-3.349C227.624,136.022,229.205,128.97,230.786,121.918z"/>
		<path fill-rule="evenodd" clip-rule="evenodd" fill="#6A6A6A" d="M230.786,159.913c0.06,7.641,0.152,15.281,0.146,22.922
			c-0.001,1.11-0.151,2.463-0.777,3.292c-4.182,5.539-8.513,10.967-12.795,16.431c-0.364-0.083-0.728-0.166-1.092-0.249
			c-0.196-4.174-0.409-8.345-0.584-12.52c-0.182-4.308-0.328-8.616-0.489-12.926c1.263,1.076,2.525,2.152,3.787,3.229
			c0.253,3.756,0.022,7.59,1.705,12.135c1.191-1.985,1.913-3.188,2.635-4.391c0.833-1.313,1.666-2.628,2.5-3.941
			c2.312-1.002,1.042-2.366,0.372-3.67C227.724,173.454,229.255,166.684,230.786,159.913z"/>
		<path fill-rule="evenodd" clip-rule="evenodd" fill="#0F0F0F" d="M216.121,237.836c0.013-0.932,0.026-1.862,0.04-2.793
			c1.191-3.438,2.383-6.875,3.574-10.312c0.415-1.159,0.732-2.365,1.265-3.468c1.12-2.313,0.214-3.548-2.024-4.188
			c-1.353-1.021-2.705-2.04-4.058-3.061c-0.51-0.397-1.119-0.717-1.502-1.212c-0.425-0.546-0.644-1.254-0.953-1.892
			c0.819,0.068,1.639,0.137,2.458,0.205c1.732,1.237,3.465,2.473,5.197,3.71c1.258,0.686,2.539,1.878,3.112-0.754
			c0.447-2.054,1.206-4.04,1.826-6.057c1.004-3.643,2.007-7.285,3.01-10.928c0.615-0.717,1.23-1.434,2.696-3.144
			c0,2.359,0,3.665,0,4.971c-1.574,4.382-3.148,8.763-4.722,13.146c-0.347,1.232-0.734,2.456-1.03,3.701
			c-0.4,1.684,0.17,2.827,1.961,3.191c1.287,1.026,2.574,2.052,3.86,3.077c-0.607,0.704-1.214,1.408-1.822,2.112
			c-0.951-0.758-1.902-1.515-2.852-2.272c-2.535-2.07-2.725-1.974-3.413,1.73c-0.312,0.757-0.622,1.514-0.933,2.271
			c-0.986,3.635-1.973,7.27-2.959,10.904c-0.288,0.402-0.576,0.806-0.864,1.209C217.365,237.936,216.743,237.886,216.121,237.836z"
			/>
		<path fill-rule="evenodd" clip-rule="evenodd" fill="#0F0F0F" d="M218.982,180.092c-1.262-1.076-2.524-2.152-3.787-3.229
			c-0.103-0.131-0.199-0.268-0.309-0.393c-0.578-0.66-1.16-1.317-1.741-1.976c0.928-0.125,1.856-0.25,2.785-0.376
			c1.341,0.957,2.682,1.915,4.023,2.873c1.174,1.417,2.349,2.834,3.948,4.764c0.469-3.384,0.83-5.987,1.191-8.59
			c0.275-1.375,0.55-2.75,0.826-4.125c0.304-2.402,0.607-4.804,0.911-7.206c1.41-4.284,2.819-8.568,4.229-12.853l-0.088,0.093
			c0.814-0.968,1.629-1.937,2.631-3.128c2.072,2.896-0.88,4.604-1.185,6.767c-0.342,2.428-1.068,4.802-1.627,7.2
			c-1.531,6.771-3.062,13.541-4.593,20.312c-0.124,1.224-0.248,2.446-0.372,3.67c-0.833,1.313-1.667,2.628-2.5,3.941
			C221.875,185.255,220.429,182.673,218.982,180.092z"/>
		<path fill-rule="evenodd" clip-rule="evenodd" fill="#0F0F0F" d="M225.798,145.884c-0.612,1.368-1.224,2.736-1.836,4.104
			c-1.66-2.634-3.32-5.268-4.98-7.903c-1.396-1.318-2.793-2.636-4.191-3.954c-0.557-0.422-1.114-0.844-1.671-1.266
			c0.926-0.216,1.852-0.432,2.778-0.647c1.39,0.9,2.779,1.799,4.169,2.699c1.086,1.476,2.172,2.951,3.774,5.128
			c0.534-3.673,0.914-6.283,1.294-8.893c0.243-1.024,0.487-2.048,0.73-3.073c0.301-2.43,0.602-4.858,0.903-7.288
			c1.75-4.928,3.5-9.856,5.25-14.784c0.319-0.485,0.638-0.97,0.957-1.454c2.398-0.208,1.549,1.034,1.138,2.314
			c-1.176,3.661-2.227,7.363-3.327,11.048c-1.581,7.052-3.162,14.104-4.743,21.156C225.961,144.011,225.879,144.948,225.798,145.884
			z"/>
		<path fill-rule="evenodd" clip-rule="evenodd" fill="#686868" d="M230.83,222.031c-1.287-1.025-2.573-2.051-3.86-3.077
			c-0.311-2.298-0.622-4.596-0.932-6.893c1.574-4.383,3.148-8.764,4.722-13.146C230.784,206.621,230.807,214.326,230.83,222.031z"/>
		<path fill-rule="evenodd" clip-rule="evenodd" fill="#6B6B6B" d="M220.116,214.827c-1.732-1.237-3.464-2.473-5.197-3.71
			c1.349-1.072,2.88-1.981,4.01-3.249c3.134-3.513,6.102-7.176,9.134-10.779c-1.003,3.643-2.006,7.285-3.01,10.928
			C222.341,209.513,220.149,211.388,220.116,214.827z"/>
		<path fill-rule="evenodd" clip-rule="evenodd" fill="#747474" d="M214.917,214.016c1.353,1.021,2.705,2.04,4.058,3.061
			c0.253,2.553,0.506,5.104,0.759,7.655c-1.191,3.437-2.382,6.874-3.574,10.312C215.746,228.034,215.331,221.024,214.917,214.016z"
			/>
		<path fill-rule="evenodd" clip-rule="evenodd" fill="#6B6B6B" d="M226.828,161.834c-0.304,2.402-0.607,4.804-0.911,7.206
			c-0.628,0.671-1.256,1.342-1.885,2.013c-1.36,1.979-2.72,3.958-4.08,5.938c-1.341-0.958-2.682-1.916-4.023-2.873
			c2.411-2.823,4.797-5.668,7.242-8.461C224.332,164.332,225.606,163.106,226.828,161.834z"/>
		<path fill-rule="evenodd" clip-rule="evenodd" fill="#6B6B6B" d="M218.852,236.776c0.986-3.635,1.973-7.27,2.959-10.904
			c0.692-0.323,1.385-0.646,2.078-0.97c0.756-1.01,1.512-2.021,2.268-3.031c0.95,0.758,1.901,1.515,2.852,2.272
			C225.623,228.354,222.238,232.565,218.852,236.776z"/>
		<path fill-rule="evenodd" clip-rule="evenodd" fill="#6C6C6C" d="M226.769,124.793c-0.301,2.429-0.602,4.858-0.903,7.288
			c-0.624,0.646-1.248,1.292-1.872,1.938c-1.309,1.633-2.618,3.266-3.927,4.899c-1.39-0.9-2.779-1.799-4.169-2.699
			c1.553-1.435,3.196-2.785,4.638-4.324C222.688,129.598,224.698,127.167,226.769,124.793z"/>
		<path fill-rule="evenodd" clip-rule="evenodd" fill="#919191" d="M216.121,237.836c0.622,0.05,1.244,0.1,1.867,0.149
			c-0.492,0.674-0.984,1.347-1.477,2.02C216.381,239.282,216.25,238.559,216.121,237.836z"/>
		<path fill-rule="evenodd" clip-rule="evenodd" fill="#EDEDED" d="M218.981,142.085c1.661,2.635,3.321,5.269,4.98,7.903
			c-1.042,1.545-2.083,3.091-3.124,4.637c-0.335-0.125-0.67-0.251-1.005-0.377C219.549,150.194,219.265,146.14,218.981,142.085z"/>
		<path fill-rule="evenodd" clip-rule="evenodd" fill="#EBEBEB" d="M225.798,145.884c0.082-0.937,0.164-1.874,0.245-2.811
			c0.286,1.116,0.573,2.232,0.859,3.349C226.534,146.243,226.166,146.063,225.798,145.884z"/>
		<path fill-rule="evenodd" clip-rule="evenodd" fill="#EAEAEA" d="M218.982,180.092c1.447,2.581,2.894,5.163,4.34,7.744
			c-0.722,1.203-1.443,2.405-2.635,4.391C219.004,187.682,219.235,183.848,218.982,180.092z"/>
		<path fill-rule="evenodd" clip-rule="evenodd" fill="#D9D9D9" d="M225.821,183.895c0.124-1.224,0.248-2.446,0.372-3.67
			C226.864,181.528,228.133,182.893,225.821,183.895z"/>
		<path fill-rule="evenodd" clip-rule="evenodd" fill="#EBEBEB" d="M220.116,214.827c0.033-3.439,2.225-5.314,4.938-6.811
			c-0.62,2.017-1.378,4.003-1.826,6.057C222.655,216.705,221.375,215.513,220.116,214.827z"/>
		<path fill-rule="evenodd" clip-rule="evenodd" fill="#DADADA" d="M219.734,224.731c-0.253-2.552-0.506-5.103-0.759-7.655
			c2.239,0.64,3.144,1.874,2.024,4.188C220.466,222.366,220.149,223.572,219.734,224.731z"/>
		<path fill-rule="evenodd" clip-rule="evenodd" fill="none" d="M226.038,212.062c0.31,2.297,0.621,4.595,0.932,6.893
			c-1.792-0.364-2.361-1.508-1.961-3.191C225.304,214.518,225.691,213.294,226.038,212.062z"/>
		<path fill-rule="evenodd" clip-rule="evenodd" fill="#DDDDDD" d="M226.156,221.871c-0.756,1.011-1.512,2.021-2.268,3.031
			c-0.381-0.434-0.763-0.867-1.145-1.301C223.432,219.897,223.621,219.801,226.156,221.871z"/>
		<path fill-rule="evenodd" clip-rule="evenodd" fill="#C5C5C5" d="M222.744,223.602c0.381,0.434,0.763,0.867,1.145,1.301
			c-0.692,0.323-1.385,0.646-2.078,0.97C222.122,225.115,222.432,224.358,222.744,223.602z"/>
		<path fill-rule="evenodd" clip-rule="evenodd" fill="none" d="M219.952,176.992c1.36-1.98,2.72-3.959,4.08-5.938
			c0.353,0.704,0.706,1.408,1.059,2.112c-0.361,2.603-0.722,5.206-1.191,8.59C222.301,179.826,221.126,178.409,219.952,176.992z"/>
		<path fill-rule="evenodd" clip-rule="evenodd" fill="#C4C4C4" d="M225.091,173.166c-0.353-0.705-0.706-1.408-1.059-2.112
			c0.628-0.671,1.256-1.342,1.885-2.013C225.642,170.416,225.367,171.791,225.091,173.166z"/>
		<path fill-rule="evenodd" clip-rule="evenodd" fill="#F0F0F0" d="M220.066,138.918c1.309-1.633,2.618-3.266,3.927-4.899
			c0.38,0.378,0.761,0.756,1.141,1.135c-0.38,2.61-0.76,5.22-1.294,8.893C222.238,141.869,221.152,140.394,220.066,138.918z"/>
		<path fill-rule="evenodd" clip-rule="evenodd" fill="#B1B1B1" d="M225.135,135.154c-0.38-0.378-0.761-0.757-1.141-1.135
			c0.624-0.646,1.248-1.292,1.872-1.938C225.622,133.105,225.378,134.129,225.135,135.154z"/>
	</g>
</g>
</svg>
